<svg id="Layer_7" data-name="Layer 7" xmlns="http://www.w3.org/2000/svg" viewBox="0 0 424.01 424.01">
    <defs>
        <style>
            .cls-1 {
                fill: #1d6d80;
            }
            
            .cls-2 {
                fill: #03b5aa;
            }
            
            .cls-3 {
                fill: #1d181f;
            }
            
            .cls-4 {
                fill: #f2590f;
            }
        </style>
    </defs>
    <title>svg 2</title>
    <path class="cls-1" d="M250,453.34a61.77,61.77,0,1,1,61.77-61.77A61.84,61.84,0,0,1,250,453.34Zm0-121a59.27,59.27,0,1,0,59.27,59.27A59.34,59.34,0,0,0,250,332.3Z" transform="translate(-37.99 -37.99)" />
    <path class="cls-1" d="M250,462a70.44,70.44,0,1,1,0-140.87c2.26,0,4.55.11,6.8,0.32a1.25,1.25,0,0,1-.24,2.49c-2.17-.21-4.37-0.31-6.56-0.31a67.93,67.93,0,1,0,48,19.9L220.54,266a1.25,1.25,0,1,1,1.77-1.77l77.5,77.5A70.44,70.44,0,0,1,250,462Z" transform="translate(-37.99 -37.99)" />
    <path class="cls-2" d="M391.57,311.77A61.77,61.77,0,1,1,453.34,250,61.84,61.84,0,0,1,391.57,311.77Zm0-121A59.27,59.27,0,1,0,450.84,250,59.34,59.34,0,0,0,391.57,190.73Z" transform="translate(-37.99 -37.99)" />
    <path class="cls-2" d="M391.57,320.44A70.52,70.52,0,0,1,321.13,250c0-2.27.11-4.56,0.32-6.8a1.25,1.25,0,0,1,2.49.24c-0.21,2.16-.31,4.37-0.31,6.56a67.93,67.93,0,1,0,19.9-48L266,279.46a1.25,1.25,0,0,1-1.77-1.77l77.5-77.5A70.44,70.44,0,1,1,391.57,320.44Z" transform="translate(-37.99 -37.99)" />
    <path class="cls-3" d="M250,170.2a61.77,61.77,0,1,1,61.77-61.77A61.84,61.84,0,0,1,250,170.2Zm0-121a59.27,59.27,0,1,0,59.27,59.27A59.34,59.34,0,0,0,250,49.16Z" transform="translate(-37.99 -37.99)" />
    <path class="cls-3" d="M278.57,236.1a1.25,1.25,0,0,1-.88-0.37l-77.5-77.5A70.44,70.44,0,1,1,250,178.87c-2.26,0-4.55-.11-6.8-0.32a1.25,1.25,0,0,1,.24-2.49c2.17,0.21,4.37.31,6.56,0.31a67.94,67.94,0,1,0-48-19.9l77.5,77.5A1.25,1.25,0,0,1,278.57,236.1Z" transform="translate(-37.99 -37.99)" />
    <path class="cls-4" d="M108.43,311.77A61.77,61.77,0,1,1,170.2,250,61.84,61.84,0,0,1,108.43,311.77Zm0-121A59.27,59.27,0,1,0,167.7,250,59.34,59.34,0,0,0,108.43,190.73Z" transform="translate(-37.99 -37.99)" />
    <path class="cls-4" d="M108.43,320.44A70.44,70.44,0,1,1,178.87,250c0,2.26-.11,4.55-0.32,6.8a1.25,1.25,0,0,1-2.49-.24c0.21-2.17.31-4.37,0.31-6.56a67.94,67.94,0,1,0-19.9,48l77.5-77.5a1.25,1.25,0,0,1,1.77,1.77l-77.5,77.5A70,70,0,0,1,108.43,320.44Z" transform="translate(-37.99 -37.99)" />
    <g id="Layer_87" data-name="Layer 87">
        <g id="Arrows">
            <g id="_01" data-name="01">
                <polygon class="cls-4" points="192.53 178.93 206.9 173.51 201.48 187.88 192.53 178.93" />
            </g>
            <g id="_04" data-name="04">
                <polygon class="cls-1" points="178.93 231.48 173.51 217.11 187.88 222.53 178.93 231.48" />
            </g>
            <g id="_03" data-name="03">
                <polygon class="cls-2" points="231.48 245.08 217.11 250.5 222.53 236.13 231.48 245.08" />
            </g>
            <g id="_02" data-name="02">
                <polygon class="cls-3" points="245.08 192.53 250.5 206.9 236.13 201.48 245.08 192.53" />
            </g>
        </g>
    </g>
    <g id="Layer_86" data-name="Layer 86">
        <g id="_04-2" data-name="04">
            <path class="cls-4" d="M108.84,208.63a11.93,11.93,0,0,0-6.16,22.14v3.11a0.49,0.49,0,0,0,.49.49H104v4.2a0.49,0.49,0,0,0,.15.36l1.66,1.66a0.49,0.49,0,0,0,.36.15h5.29a0.47,0.47,0,0,0,.36-0.15l1.66-1.66a0.49,0.49,0,0,0,.15-0.36v-4.2h0.88a0.49,0.49,0,0,0,.49-0.49v-3.11A11.93,11.93,0,0,0,108.84,208.63Zm3.83,27.93h-2.82a0.49,0.49,0,0,0,0,1h2.82v0.82l-1.37,1.37h-4.88L105,238.37V236h2.82a0.49,0.49,0,0,0,0-1H105v-0.69h7.65v2.2Zm1.62-6.5a0.47,0.47,0,0,0-.25.43v2.9h-4.71V222h3.44a2.46,2.46,0,1,0,0-1h-7.83a2.46,2.46,0,1,0,0,1h3.41v11.39h-4.69v-2.9a0.49,0.49,0,0,0-.25-0.43A10.93,10.93,0,1,1,114.29,230.06Zm-0.59-8.55a1.47,1.47,0,1,1,1.47,1.47A1.48,1.48,0,0,1,113.7,221.51Zm-9.7,0a1.47,1.47,0,1,1-1.47-1.48A1.48,1.48,0,0,1,104,221.51Zm4.34-15.33v-4.63a0.49,0.49,0,0,1,.49-0.49,0.48,0.48,0,0,1,.49.49v4.63a0.48,0.48,0,0,1-.49.49A0.49,0.49,0,0,1,108.35,206.18Zm-11.59,7.47a0.53,0.53,0,0,1-.43.25,0.47,0.47,0,0,1-.24-0.07l-4-2.31a0.51,0.51,0,0,1-.17-0.67,0.49,0.49,0,0,1,.66-0.18l4,2.32A0.5,0.5,0,0,1,96.77,213.65Zm0,14a0.48,0.48,0,0,1-.18.66l-4,2.32a0.52,0.52,0,0,1-.25.06,0.49,0.49,0,0,1-.42-0.25,0.51,0.51,0,0,1,.17-0.67l4-2.31A0.49,0.49,0,0,1,96.77,227.61Zm29,2.8a0.49,0.49,0,0,1-.43.25,0.66,0.66,0,0,1-.25-0.06l-4-2.32a0.49,0.49,0,0,1,.49-0.85l4,2.32A0.47,0.47,0,0,1,125.79,230.4Zm-4.85-16.75a0.48,0.48,0,0,1,.17-0.68l4-2.32a0.5,0.5,0,0,1,.67.18,0.49,0.49,0,0,1-.18.67l-4,2.31a0.45,0.45,0,0,1-.25.07A0.49,0.49,0,0,1,120.94,213.65Z" transform="translate(-37.99 -37.99)" />
        </g>
    </g>
    <g id="Layer_85" data-name="Layer 85">
        <g id="_03-2" data-name="03">
            <path id="_05" data-name="05" class="cls-2" d="M412.26,236.19A0.34,0.34,0,0,1,412,236l-1.72-3.64H405.9a0.34,0.34,0,0,1-.32-0.24L403.63,226h-2a0.34,0.34,0,0,1-.31-0.47l1.94-4.72a9.48,9.48,0,0,1-.07-1.17,9.62,9.62,0,1,1,17.42,5.65c-0.46,2.07-.29,8-0.29,8.09a0.34,0.34,0,0,1-.23.33l-7.67,2.5Zm-6.11-4.51h4.29a0.34,0.34,0,0,1,.31.19l1.69,3.56,7.14-2.33c0-1.2-.12-6.2.33-8.08a0.34,0.34,0,0,1,.06-0.12,8.94,8.94,0,1,0-16.14-5.3,9.17,9.17,0,0,0,.08,1.17,0.34,0.34,0,0,1,0,.17l-1.78,4.33h1.79a0.34,0.34,0,0,1,.33.24Zm1.92-13.18a0.34,0.34,0,0,0-.21.39l0.18,0.88a0.34,0.34,0,0,0,.35.27l0.69,0a4.71,4.71,0,0,0,.25.5l-0.43.53a0.34,0.34,0,0,0,0,.44l0.6,0.67a0.34,0.34,0,0,0,.44.06l0.57-.37a4.61,4.61,0,0,0,.47.31l-0.11.68a0.34,0.34,0,0,0,.23.38l0.85,0.28a0.34,0.34,0,0,0,.41-0.17l0.32-.61a4.08,4.08,0,0,0,.56,0l0.25,0.64a0.34,0.34,0,0,0,.32.22h0.07l0.87-.18a0.34,0.34,0,0,0,.27-0.35l0-.68a4.41,4.41,0,0,0,.5-0.26l0.53,0.43a0.34,0.34,0,0,0,.44,0l0.67-.6a0.34,0.34,0,0,0,.06-0.44l-0.37-.58a4.6,4.6,0,0,0,.31-0.47l0.68,0.11a0.34,0.34,0,0,0,.38-0.23l0.28-.85a0.34,0.34,0,0,0-.17-0.41l-0.61-.31a4.78,4.78,0,0,0,0-.56l0.65-.24a0.34,0.34,0,0,0,.21-0.39l-0.19-.88a0.34,0.34,0,0,0-.35-0.27l-0.69,0a4.22,4.22,0,0,0-.25-0.5l0.44-.53a0.34,0.34,0,0,0,0-.44l-0.6-.67a0.34,0.34,0,0,0-.44-0.06l-0.57.37a4.16,4.16,0,0,0-.47-0.31l0.11-.67a0.34,0.34,0,0,0-.23-0.38l-0.85-.28a0.34,0.34,0,0,0-.41.17l-0.32.61a4.35,4.35,0,0,0-.56,0l-0.24-.64a0.34,0.34,0,0,0-.39-0.21l-0.88.19a0.34,0.34,0,0,0-.27.35l0,0.68a5.07,5.07,0,0,0-.5.26l-0.53-.43a0.34,0.34,0,0,0-.44,0l-0.67.6a0.34,0.34,0,0,0-.06.44l0.37,0.58a4.42,4.42,0,0,0-.31.47l-0.67-.11a0.34,0.34,0,0,0-.38.23L408,217a0.34,0.34,0,0,0,.17.41l0.61,0.31a4.8,4.8,0,0,0,0,.56Zm1.2-1.3-0.57-.29,0.1-.3,0.63,0.1a0.34,0.34,0,0,0,.36-0.18,3.81,3.81,0,0,1,.5-0.76,0.34,0.34,0,0,0,0-.41l-0.35-.54,0.24-.21,0.49,0.4a0.34,0.34,0,0,0,.41,0,4,4,0,0,1,.81-0.41,0.34,0.34,0,0,0,.22-0.34l0-.63,0.31-.07,0.23,0.6a0.34,0.34,0,0,0,.34.22,3.93,3.93,0,0,1,.91,0,0.34,0.34,0,0,0,.36-0.18l0.29-.57,0.3,0.1-0.1.63a0.34,0.34,0,0,0,.19.36,3.51,3.51,0,0,1,.75.5,0.34,0.34,0,0,0,.41,0l0.54-.35,0.21,0.23-0.4.49a0.34,0.34,0,0,0,0,.4,3.7,3.7,0,0,1,.41.81,0.34,0.34,0,0,0,.34.23l0.64,0,0.07,0.31-0.6.23a0.34,0.34,0,0,0-.22.34,4,4,0,0,1-.05.91,0.34,0.34,0,0,0,.18.36l0.57,0.29-0.1.3-0.63-.1a0.34,0.34,0,0,0-.36.19,3.82,3.82,0,0,1-.5.76,0.34,0.34,0,0,0,0,.4l0.35,0.54-0.23.21-0.5-.4a0.34,0.34,0,0,0-.41,0,3.72,3.72,0,0,1-.81.41,0.34,0.34,0,0,0-.22.34l0,0.64-0.31.06-0.23-.6a0.34,0.34,0,0,0-.32-0.22,3.9,3.9,0,0,1-.93,0,0.34,0.34,0,0,0-.36.18l-0.29.57-0.3-.1,0.1-.63a0.34,0.34,0,0,0-.19-0.36,3.89,3.89,0,0,1-.76-0.5,0.34,0.34,0,0,0-.4,0l-0.53.34-0.21-.24,0.4-.49a0.34,0.34,0,0,0,0-.41,4,4,0,0,1-.41-0.81,0.34,0.34,0,0,0-.33-0.22l-0.64,0-0.06-.31,0.6-.23a0.34,0.34,0,0,0,.22-0.34,4.23,4.23,0,0,1,0-.91A0.34,0.34,0,0,0,409.27,217.19Zm3.95,3.38a2.35,2.35,0,1,0-2.35-2.35A2.36,2.36,0,0,0,413.22,220.57Zm0-4a1.67,1.67,0,1,1-1.67,1.67A1.67,1.67,0,0,1,413.22,216.55Zm-36.89,19.62-7.67-2.5a0.34,0.34,0,0,1-.23-0.33c0-.06.18-6-0.29-8.09a9.63,9.63,0,1,1,17.34-4.48l1.94,4.72a0.34,0.34,0,0,1-.31.47h-2l-1.94,6.16a0.34,0.34,0,0,1-.32.24h-4.33L376.74,236a0.34,0.34,0,0,1-.31.19Zm8.16-10.65a0.34,0.34,0,0,1,.33-0.24h1.79l-1.78-4.33a0.34,0.34,0,0,1,0-.17,9.17,9.17,0,0,0,.08-1.17,8.94,8.94,0,1,0-16.14,5.3,0.34,0.34,0,0,1,.06.12c0.45,1.88.36,6.87,0.33,8.08l7.14,2.33,1.69-3.56a0.34,0.34,0,0,1,.31-0.19h4.29Zm23.43-17.91a0.44,0.44,0,0,0,0-.13,0.4,0.4,0,0,0-.07-0.14L406,205.18a0.37,0.37,0,1,0-.57.48l0.75,0.89a29.68,29.68,0,0,0-23,0l0.75-.89a0.37,0.37,0,1,0-.57-0.48l-1.82,2.15a0.35,0.35,0,0,0-.07.11,0.5,0.5,0,0,0,0,.13,0.4,0.4,0,0,0,0,.16,0.52,0.52,0,0,0,.08.11,0.43,0.43,0,0,0,.12.08l0.13,0,2.82,0a0.37,0.37,0,1,0,0-.74l-1.17,0a28.93,28.93,0,0,1,22.4,0l-1.17,0a0.37,0.37,0,0,0,0,.74l2.83,0,0.1,0A0.63,0.63,0,0,0,407.91,207.61Zm0,30.52a0.39,0.39,0,0,0,0-.15,0.48,0.48,0,0,0-.08-0.11,0.39,0.39,0,0,0-.12-0.08l-0.13,0-2.82,0a0.37,0.37,0,1,0,0,.74l1.17,0a28.93,28.93,0,0,1-22.4,0l1.17,0a0.37,0.37,0,0,0,.37-0.38,0.39,0.39,0,0,0-.38-0.37l-2.82,0-0.11,0-0.11.06a0.44,0.44,0,0,0-.09.11,0.36,0.36,0,0,0,0,.15,0.49,0.49,0,0,0,0,.13,0.39,0.39,0,0,0,.07.14l1.82,2.15a0.37,0.37,0,1,0,.57-0.48l-0.75-.89a29.68,29.68,0,0,0,23,0l-0.75.89a0.37,0.37,0,0,0,.57.48l1.82-2.16a0.36,0.36,0,0,0,.06-0.11A0.45,0.45,0,0,0,407.91,238.13ZM375.6,223.93a5.71,5.71,0,1,1,5.71-5.71A5.71,5.71,0,0,1,375.6,223.93Zm0-10.7a5,5,0,1,0,5,5A5,5,0,0,0,375.6,213.23Zm-0.39,6.31v-0.22a1.83,1.83,0,0,1,.15-0.79,2.1,2.1,0,0,1,.55-0.65,3.69,3.69,0,0,0,.7-0.71,1.07,1.07,0,0,0,.14-0.57,0.79,0.79,0,0,0-.27-0.64,1.16,1.16,0,0,0-.77-0.23,2.61,2.61,0,0,0-.63.08,3.42,3.42,0,0,0-.7.28l-0.24-.55a3.42,3.42,0,0,1,1.61-.4,1.76,1.76,0,0,1,1.21.38,1.37,1.37,0,0,1,.43,1.08,1.59,1.59,0,0,1-.08.52,1.55,1.55,0,0,1-.23.43,5.66,5.66,0,0,1-.67.65,2.51,2.51,0,0,0-.54.58,1.25,1.25,0,0,0-.13.62v0.13h-0.53Zm-0.2,1.21a0.5,0.5,0,0,1,.85-0.41,0.6,0.6,0,0,1,.13.41,0.59,0.59,0,0,1-.13.41,0.46,0.46,0,0,1-.36.14,0.49,0.49,0,0,1-.35-0.13A0.55,0.55,0,0,1,375,220.75Z" transform="translate(-37.99 -37.99)" />
        </g>
    </g>
    <g id="Layer_84" data-name="Layer 84">
        <g id="_02-2" data-name="02">
            <path id="_06" data-name="06" class="cls-3" d="M237.42,66.89h-6a0.41,0.41,0,0,0-.41.41v26a0.41,0.41,0,0,0,.41.41h6a0.41,0.41,0,0,0,.41-0.41v-26A0.41,0.41,0,0,0,237.42,66.89Zm-5.62,26V67.71H237V70.3H234.4a0.41,0.41,0,0,0,0,.82H237v2.44H234.4a0.41,0.41,0,0,0,0,.82H237v2.44H234.4a0.41,0.41,0,0,0,0,.82H237v2.44H234.4a0.41,0.41,0,1,0,0,.82H237v2.44H234.4a0.41,0.41,0,0,0,0,.82H237v2.44H234.4a0.41,0.41,0,1,0,0,.82H237v5.44h-5.21Zm2.61-3.37a1.43,1.43,0,1,0,1.43,1.43A1.43,1.43,0,0,0,234.4,89.48Zm0,2a0.61,0.61,0,1,1,.61-0.61A0.62,0.62,0,0,1,234.4,91.53Zm27.09-3.42a0.55,0.55,0,0,0,0-.16V67.3a0.41,0.41,0,0,0-.41-0.41H240.68a0.41,0.41,0,0,0-.41.41v26a0.41,0.41,0,0,0,.41.41h15.21l0.13-.05,0.08-.06,5.31-5.31,0.05-.06Zm-20.41-20.4h19.62V87.54H255.8a0.41,0.41,0,0,0-.41.41v4.9H241.09V67.71Zm19,20.65-3.92,3.92V88.36h3.92Zm-17-17a0.41,0.41,0,0,1,.41-0.41h14.65a0.41,0.41,0,0,1,0,.82H243.57A0.41,0.41,0,0,1,243.16,71.34Zm0,3.79a0.41,0.41,0,0,1,.41-0.41h14.65a0.41,0.41,0,0,1,0,.82H243.57A0.41,0.41,0,0,1,243.16,75.14Zm0.41,4.2a0.41,0.41,0,1,1,0-.82h14.65a0.41,0.41,0,1,1,0,.82H243.57ZM269,71.79l-1.09-3.16-0.12-.36c-0.39-1.14-.93-1.38-1.3-1.38s-0.91.24-1.31,1.38l-0.12.36L264,71.79a0.41,0.41,0,0,0,0,.19V92.45a1.54,1.54,0,0,0,1.75,1.23h1.56A1.54,1.54,0,0,0,269,92.45V72A0.43,0.43,0,0,0,269,71.79ZM264.77,89V72.33h1.31V89h-1.31Zm2.13-16.68h1.31V89h-1.31V72.33Zm-0.41-4.62a1,1,0,0,1,.46.65H266A1,1,0,0,1,266.49,67.71Zm-0.75,1.47h1.5L268,71.51h-3.12Zm2.47,23.27a0.93,0.93,0,0,1-.94.41H265.7a0.93,0.93,0,0,1-.93-0.41V89.83h3.43v2.61Z" transform="translate(-37.99 -37.99)" />
        </g>
    </g>
    <path d="M363.64,260.05a4.25,4.25,0,0,1,4.45-4.29,4.15,4.15,0,0,1,3.19,1.31l-0.78.75a3.11,3.11,0,0,0-2.36-1,3.23,3.23,0,1,0,0,6.45,3.12,3.12,0,0,0,2.36-1l0.78,0.75a4.16,4.16,0,0,1-3.2,1.32A4.24,4.24,0,0,1,363.64,260.05Z" transform="translate(-37.99 -37.99)" />
    <path d="M372,261.07a3.3,3.3,0,1,1,3.31,3.25A3.16,3.16,0,0,1,372,261.07Zm5.45,0a2.14,2.14,0,1,0-2.14,2.24A2.09,2.09,0,0,0,377.42,261.07Z" transform="translate(-37.99 -37.99)" />
    <path d="M386.22,260.59v3.66h-1.15v-3.53a1.6,1.6,0,0,0-1.71-1.86,1.89,1.89,0,0,0-2,2.11v3.27h-1.15v-6.36h1.1v1a2.73,2.73,0,0,1,2.29-1A2.46,2.46,0,0,1,386.22,260.59Z" transform="translate(-37.99 -37.99)" />
    <path d="M387.55,263.58l0.48-.91a4.09,4.09,0,0,0,2.23.66c1.07,0,1.51-.32,1.51-0.86,0-1.43-4-.19-4-2.72,0-1.14,1-1.91,2.65-1.91a4.63,4.63,0,0,1,2.31.58l-0.49.91a3.32,3.32,0,0,0-1.83-.5c-1,0-1.5.37-1.5,0.88,0,1.5,4,.28,4,2.75,0,1.15-1.06,1.88-2.75,1.88A4.59,4.59,0,0,1,387.55,263.58Z" transform="translate(-37.99 -37.99)" />
    <path d="M400.29,257.89v6.36H399.2v-1a2.59,2.59,0,0,1-2.16,1,2.5,2.5,0,0,1-2.73-2.77v-3.66h1.15v3.53a1.61,1.61,0,0,0,1.71,1.87,1.87,1.87,0,0,0,2-2.11v-3.29h1.15Z" transform="translate(-37.99 -37.99)" />
    <path d="M413,260.59v3.66H411.9v-3.53a1.57,1.57,0,0,0-1.64-1.86,1.85,1.85,0,0,0-1.91,2.11v3.27H407.2v-3.53a1.57,1.57,0,0,0-1.64-1.86,1.84,1.84,0,0,0-1.91,2.11v3.27h-1.15v-6.36h1.1v0.95a2.58,2.58,0,0,1,2.2-1A2.35,2.35,0,0,1,408,259a2.86,2.86,0,0,1,2.45-1.17A2.44,2.44,0,0,1,413,260.59Z" transform="translate(-37.99 -37.99)" />
    <path d="M420.93,261.46h-5.16a2.15,2.15,0,0,0,2.3,1.86,2.37,2.37,0,0,0,1.83-.77l0.64,0.74a3.46,3.46,0,0,1-5.92-2.22,3.11,3.11,0,0,1,3.19-3.24,3.06,3.06,0,0,1,3.14,3.27C421,261.2,420.95,261.35,420.93,261.46Zm-5.16-.83h4.08A2.05,2.05,0,0,0,415.78,260.63Z" transform="translate(-37.99 -37.99)" />
    <path d="M426,257.83v1.12h-0.26a1.9,1.9,0,0,0-2,2.15v3.17h-1.15v-6.36h1.1V259A2.43,2.43,0,0,1,426,257.83Z" transform="translate(-37.99 -37.99)" />
    <path d="M367.94,273.18c0,1.82-1.32,2.93-3.5,2.93h-2.07v2.54h-1.2v-8.4h3.27C366.62,270.25,367.94,271.36,367.94,273.18Zm-1.2,0c0-1.2-.8-1.88-2.34-1.88h-2v3.77h2C365.94,275.06,366.74,274.38,366.74,273.18Z" transform="translate(-37.99 -37.99)" />
    <path d="M368.86,278l0.48-.91a4.09,4.09,0,0,0,2.23.66c1.07,0,1.51-.32,1.51-0.86,0-1.43-4-.19-4-2.72,0-1.14,1-1.91,2.65-1.91a4.63,4.63,0,0,1,2.31.58l-0.49.91a3.32,3.32,0,0,0-1.83-.5c-1,0-1.5.37-1.5,0.88,0,1.5,4,.28,4,2.75,0,1.15-1.06,1.88-2.75,1.88A4.59,4.59,0,0,1,368.86,278Z" transform="translate(-37.99 -37.99)" />
    <path d="M381.18,272.29l-3.08,7a2.31,2.31,0,0,1-2.27,1.76,2.39,2.39,0,0,1-1.63-.59l0.49-.86a1.63,1.63,0,0,0,1.14.47,1.25,1.25,0,0,0,1.21-1l0.2-.44-2.81-6.34h1.2l2.22,5.08,2.19-5.08h1.13Z" transform="translate(-37.99 -37.99)" />
    <path d="M381.5,275.47a3.18,3.18,0,0,1,3.36-3.24,2.83,2.83,0,0,1,2.59,1.35l-0.87.56a2,2,0,0,0-1.73-.91,2.24,2.24,0,0,0,0,4.47,2,2,0,0,0,1.73-.91l0.88,0.55a2.85,2.85,0,0,1-2.59,1.37A3.19,3.19,0,0,1,381.5,275.47Z" transform="translate(-37.99 -37.99)" />
    <path d="M394.88,275v3.66h-1.15v-3.53a1.6,1.6,0,0,0-1.71-1.86,1.89,1.89,0,0,0-2,2.11v3.27h-1.15v-8.9H390v3.44a2.76,2.76,0,0,1,2.24-1A2.46,2.46,0,0,1,394.88,275Z" transform="translate(-37.99 -37.99)" />
    <path d="M396.47,275.47a3.3,3.3,0,1,1,3.31,3.25A3.16,3.16,0,0,1,396.47,275.47Zm5.45,0a2.14,2.14,0,1,0-2.14,2.24A2.09,2.09,0,0,0,401.92,275.47Z" transform="translate(-37.99 -37.99)" />
    <path d="M404.68,269.75h1.15v8.9h-1.15v-8.9Z" transform="translate(-37.99 -37.99)" />
    <path d="M407.44,275.47a3.3,3.3,0,1,1,3.31,3.25A3.16,3.16,0,0,1,407.44,275.47Zm5.44,0a2.14,2.14,0,1,0-2.13,2.24A2.09,2.09,0,0,0,412.88,275.47Z" transform="translate(-37.99 -37.99)" />
    <path d="M421.73,272.29v5.49c0,2.24-1.14,3.26-3.3,3.26a4.7,4.7,0,0,1-3-.95l0.55-.89a3.88,3.88,0,0,0,2.45.83,1.89,1.89,0,0,0,2.18-2.13v-0.5a2.91,2.91,0,0,1-2.29,1,3.08,3.08,0,1,1,0-6.15,2.9,2.9,0,0,1,2.35,1v-1h1.09Zm-1.13,3a2.19,2.19,0,1,0-2.18,2.07A2,2,0,0,0,420.6,275.3Z" transform="translate(-37.99 -37.99)" />
    <path d="M429.55,272.29l-3.08,7A2.31,2.31,0,0,1,424.2,281a2.39,2.39,0,0,1-1.63-.59l0.49-.86a1.63,1.63,0,0,0,1.14.47,1.25,1.25,0,0,0,1.21-1l0.2-.44-2.81-6.34H424l2.22,5.08,2.19-5.08h1.13Z" transform="translate(-37.99 -37.99)" />
    <path d="M229,120.33l-1.81-2.58-0.53,0h-2.08v2.55h-1.2v-8.4h3.27c2.18,0,3.5,1.1,3.5,2.93a2.65,2.65,0,0,1-1.85,2.65l2,2.82H229Zm0-5.47c0-1.2-.8-1.88-2.34-1.88h-2v3.78h2C228.18,116.76,229,116.06,229,114.86Z" transform="translate(-37.99 -37.99)" />
    <path d="M237.69,117.54h-5.16a2.15,2.15,0,0,0,2.3,1.86,2.37,2.37,0,0,0,1.83-.77l0.64,0.74a3.46,3.46,0,0,1-5.92-2.22,3.11,3.11,0,0,1,3.19-3.24,3.07,3.07,0,0,1,3.14,3.27C237.71,117.29,237.7,117.43,237.69,117.54Zm-5.16-.83h4.08A2.05,2.05,0,0,0,232.53,116.71Z" transform="translate(-37.99 -37.99)" />
    <path d="M238.51,119.66l0.48-.91a4.08,4.08,0,0,0,2.23.66c1.07,0,1.51-.32,1.51-0.86,0-1.43-4-.19-4-2.72,0-1.14,1-1.91,2.65-1.91a4.63,4.63,0,0,1,2.31.58l-0.49.91a3.32,3.32,0,0,0-1.83-.5c-1,0-1.5.37-1.5,0.88,0,1.5,4,.28,4,2.75,0,1.15-1.06,1.88-2.75,1.88A4.59,4.59,0,0,1,238.51,119.66Z" transform="translate(-37.99 -37.99)" />
    <path d="M251,117.54h-5.16a2.15,2.15,0,0,0,2.3,1.86,2.37,2.37,0,0,0,1.83-.77l0.64,0.74a3.46,3.46,0,0,1-5.92-2.22,3.11,3.11,0,0,1,3.19-3.24,3.07,3.07,0,0,1,3.14,3.27C251.07,117.29,251.06,117.43,251,117.54Zm-5.16-.83H250A2.05,2.05,0,0,0,245.89,116.71Z" transform="translate(-37.99 -37.99)" />
    <path d="M257.52,116.5v3.84h-1.09v-0.84a2.36,2.36,0,0,1-2.09.91c-1.44,0-2.35-.77-2.35-1.87s0.66-1.86,2.55-1.86h1.82v-0.23a1.46,1.46,0,0,0-1.7-1.54,3.22,3.22,0,0,0-2,.68l-0.48-.86a4.23,4.23,0,0,1,2.63-.82C256.54,113.92,257.52,114.76,257.52,116.5Zm-1.15,1.9V117.5H254.6c-1.14,0-1.46.44-1.46,1a1.16,1.16,0,0,0,1.4,1A1.84,1.84,0,0,0,256.37,118.39Z" transform="translate(-37.99 -37.99)" />
    <path d="M263.08,113.92V115h-0.26a1.9,1.9,0,0,0-2,2.15v3.17h-1.15V114h1.1V115A2.43,2.43,0,0,1,263.08,113.92Z" transform="translate(-37.99 -37.99)" />
    <path d="M263.85,117.16a3.18,3.18,0,0,1,3.36-3.24,2.83,2.83,0,0,1,2.59,1.36l-0.87.56a2,2,0,0,0-1.73-.91,2.24,2.24,0,0,0,0,4.47,2,2,0,0,0,1.73-.91L269.8,119a2.84,2.84,0,0,1-2.59,1.37A3.19,3.19,0,0,1,263.85,117.16Z" transform="translate(-37.99 -37.99)" />
    <path d="M277.24,116.68v3.66h-1.15v-3.53a1.6,1.6,0,0,0-1.71-1.86,1.89,1.89,0,0,0-2,2.11v3.27h-1.15v-8.9h1.15v3.44a2.75,2.75,0,0,1,2.24-1A2.46,2.46,0,0,1,277.24,116.68Z" transform="translate(-37.99 -37.99)" />
    <path d="M212.54,134.87l-1.12-1.12a3.92,3.92,0,0,1-2.81,1.08c-1.7,0-2.94-.9-2.94-2.18,0-1,.59-1.75,2-2.58a2.63,2.63,0,0,1-1-1.92c0-1.13.89-1.88,2.27-1.88a1.8,1.8,0,0,1,2.09,1.75c0,0.85-.5,1.46-1.79,2.19l2.07,2.06a5.28,5.28,0,0,0,.52-1.52l0.92,0.3a5.53,5.53,0,0,1-.73,1.92l1.13,1.13Zm-1.8-1.79-2.39-2.37c-1.18.66-1.55,1.15-1.55,1.82s0.76,1.34,1.88,1.34A2.85,2.85,0,0,0,210.74,133.08Zm-3-5a2,2,0,0,0,.85,1.44c1.1-.62,1.46-1,1.46-1.54a1,1,0,0,0-1.12-.92A1,1,0,0,0,207.77,128.13Z" transform="translate(-37.99 -37.99)" />
    <path d="M217.86,126.34h3.54c2.7,0,4.53,1.7,4.53,4.2s-1.83,4.2-4.53,4.2h-3.54v-8.4Zm3.47,7.35a3.16,3.16,0,1,0,0-6.31h-2.27v6.31h2.27Z" transform="translate(-37.99 -37.99)" />
    <path d="M232.64,130.9v3.84h-1.09v-0.84a2.36,2.36,0,0,1-2.09.91c-1.44,0-2.35-.77-2.35-1.87s0.66-1.86,2.55-1.86h1.82v-0.23a1.46,1.46,0,0,0-1.7-1.54,3.21,3.21,0,0,0-2,.68l-0.48-.86a4.23,4.23,0,0,1,2.63-.82C231.65,128.32,232.64,129.16,232.64,130.9Zm-1.15,1.9V131.9h-1.77c-1.14,0-1.46.44-1.46,1a1.16,1.16,0,0,0,1.4,1A1.84,1.84,0,0,0,231.48,132.79Z" transform="translate(-37.99 -37.99)" />
    <path d="M238.35,134.36a2.17,2.17,0,0,1-1.39.44,1.81,1.81,0,0,1-2-2v-3.49h-1.08v-0.95h1.08V127h1.15v1.39h1.82v0.95h-1.82v3.44a0.94,0.94,0,0,0,1,1.07,1.45,1.45,0,0,0,.9-0.3Z" transform="translate(-37.99 -37.99)" />
    <path d="M244.78,130.9v3.84h-1.09v-0.84a2.36,2.36,0,0,1-2.09.91c-1.44,0-2.35-.77-2.35-1.87s0.66-1.86,2.55-1.86h1.82v-0.23a1.46,1.46,0,0,0-1.7-1.54,3.21,3.21,0,0,0-2,.68l-0.48-.86a4.23,4.23,0,0,1,2.63-.82C243.8,128.32,244.78,129.16,244.78,130.9Zm-1.15,1.9V131.9h-1.77c-1.14,0-1.46.44-1.46,1a1.16,1.16,0,0,0,1.4,1A1.84,1.84,0,0,0,243.63,132.79Z" transform="translate(-37.99 -37.99)" />
    <path d="M255.66,132.63H251.2l-0.92,2.1H249l3.8-8.4H254l3.81,8.4h-1.26Zm-0.42-1-1.81-4.11-1.81,4.11h3.62Z" transform="translate(-37.99 -37.99)" />
    <path d="M265,131.08v3.66h-1.15v-3.53a1.6,1.6,0,0,0-1.71-1.86,1.89,1.89,0,0,0-2,2.11v3.27h-1.15v-6.36H260v1a2.72,2.72,0,0,1,2.29-1A2.46,2.46,0,0,1,265,131.08Z" transform="translate(-37.99 -37.99)" />
    <path d="M272.14,130.9v3.84H271v-0.84a2.36,2.36,0,0,1-2.09.91c-1.44,0-2.35-.77-2.35-1.87s0.66-1.86,2.55-1.86H271v-0.23a1.46,1.46,0,0,0-1.7-1.54,3.21,3.21,0,0,0-2,.68l-0.48-.86a4.24,4.24,0,0,1,2.63-.82C271.16,128.32,272.14,129.16,272.14,130.9Zm-1.15,1.9V131.9h-1.78c-1.14,0-1.46.44-1.46,1a1.16,1.16,0,0,0,1.4,1A1.84,1.84,0,0,0,271,132.79Z" transform="translate(-37.99 -37.99)" />
    <path d="M274.28,125.83h1.15v8.9h-1.15v-8.9Z" transform="translate(-37.99 -37.99)" />
    <path d="M283.25,128.38l-3.08,7a2.31,2.31,0,0,1-2.27,1.76,2.39,2.39,0,0,1-1.63-.59l0.49-.86a1.63,1.63,0,0,0,1.14.47,1.25,1.25,0,0,0,1.21-1l0.2-.44-2.81-6.34h1.2l2.22,5.08,2.19-5.08h1.13Z" transform="translate(-37.99 -37.99)" />
    <path d="M283.45,134.06l0.48-.91a4.09,4.09,0,0,0,2.23.66c1.07,0,1.51-.32,1.51-0.86,0-1.43-4-.19-4-2.72,0-1.14,1-1.91,2.65-1.91a4.62,4.62,0,0,1,2.31.58l-0.49.91a3.32,3.32,0,0,0-1.83-.5c-1,0-1.5.37-1.5,0.88,0,1.5,4,.28,4,2.75,0,1.15-1.06,1.88-2.75,1.88A4.59,4.59,0,0,1,283.45,134.06Z" transform="translate(-37.99 -37.99)" />
    <path d="M290.06,126.41a0.76,0.76,0,0,1,.78-0.76A0.75,0.75,0,1,1,290.06,126.41Zm0.2,2h1.15v6.36h-1.15v-6.36Z" transform="translate(-37.99 -37.99)" />
    <path d="M292.81,134.06l0.48-.91a4.09,4.09,0,0,0,2.23.66c1.07,0,1.51-.32,1.51-0.86,0-1.43-4-.19-4-2.72,0-1.14,1-1.91,2.65-1.91a4.62,4.62,0,0,1,2.31.58l-0.49.91a3.32,3.32,0,0,0-1.83-.5c-1,0-1.5.37-1.5,0.88,0,1.5,4,.28,4,2.75,0,1.15-1.06,1.88-2.75,1.88A4.59,4.59,0,0,1,292.81,134.06Z" transform="translate(-37.99 -37.99)" />
    <path d="M226.57,410l0.44-.94a4.32,4.32,0,0,0,2.77,1c1.45,0,2.07-.56,2.07-1.29,0-2.05-5.08-.76-5.08-3.87,0-1.29,1-2.4,3.21-2.4a4.94,4.94,0,0,1,2.7.74l-0.4,1a4.33,4.33,0,0,0-2.3-.68c-1.43,0-2,.6-2,1.33,0,2.05,5.08.77,5.08,3.85,0,1.28-1,2.39-3.25,2.39A5,5,0,0,1,226.57,410Z" transform="translate(-37.99 -37.99)" />
    <path d="M238.2,410.63a2.17,2.17,0,0,1-1.39.44,1.81,1.81,0,0,1-2-2v-3.49h-1.08v-0.95h1.08v-1.39h1.15v1.39h1.82v0.95h-1.82V409a0.94,0.94,0,0,0,1,1.07,1.45,1.45,0,0,0,.9-0.3Z" transform="translate(-37.99 -37.99)" />
    <path d="M243,404.58v1.12h-0.26a1.9,1.9,0,0,0-2,2.15V411h-1.15v-6.36h1.1v1.07A2.43,2.43,0,0,1,243,404.58Z" transform="translate(-37.99 -37.99)" />
    <path d="M249.45,407.16V411h-1.09v-0.84a2.36,2.36,0,0,1-2.09.91c-1.44,0-2.35-.77-2.35-1.87s0.66-1.86,2.55-1.86h1.82v-0.23a1.46,1.46,0,0,0-1.7-1.54,3.21,3.21,0,0,0-2,.68l-0.48-.86a4.23,4.23,0,0,1,2.63-.82C248.47,404.58,249.45,405.42,249.45,407.16Zm-1.15,1.89v-0.89h-1.77c-1.14,0-1.46.44-1.46,1a1.16,1.16,0,0,0,1.4,1A1.84,1.84,0,0,0,248.3,409.06Z" transform="translate(-37.99 -37.99)" />
    <path d="M255.17,410.63a2.17,2.17,0,0,1-1.39.44,1.81,1.81,0,0,1-2-2v-3.49h-1.08v-0.95h1.08v-1.39h1.15v1.39h1.82v0.95h-1.82V409a0.94,0.94,0,0,0,1,1.07,1.45,1.45,0,0,0,.9-0.3Z" transform="translate(-37.99 -37.99)" />
    <path d="M262.07,408.21h-5.16a2.15,2.15,0,0,0,2.3,1.86,2.37,2.37,0,0,0,1.83-.77l0.64,0.74a3.46,3.46,0,0,1-5.92-2.22,3.11,3.11,0,0,1,3.19-3.24,3.06,3.06,0,0,1,3.14,3.27C262.09,408,262.08,408.1,262.07,408.21Zm-5.16-.83H261A2.05,2.05,0,0,0,256.91,407.38Z" transform="translate(-37.99 -37.99)" />
    <path d="M269.77,404.64v5.49c0,2.24-1.14,3.26-3.3,3.26a4.7,4.7,0,0,1-3-.95l0.55-.89a3.88,3.88,0,0,0,2.45.83,1.89,1.89,0,0,0,2.18-2.13v-0.5a2.91,2.91,0,0,1-2.29,1,3.08,3.08,0,1,1,0-6.15,2.9,2.9,0,0,1,2.35,1v-1h1.09Zm-1.13,3a2.19,2.19,0,1,0-2.18,2.07A2,2,0,0,0,268.64,407.65Z" transform="translate(-37.99 -37.99)" />
    <path d="M277.59,404.64l-3.08,7a2.31,2.31,0,0,1-2.27,1.76,2.39,2.39,0,0,1-1.63-.59l0.49-.86a1.63,1.63,0,0,0,1.14.47,1.25,1.25,0,0,0,1.21-1l0.2-.44-2.81-6.34h1.2l2.22,5.08,2.19-5.08h1.13Z" transform="translate(-37.99 -37.99)" />
    <path d="M228.78,425.53l-1.12-1.12a3.92,3.92,0,0,1-2.81,1.08c-1.7,0-2.94-.9-2.94-2.18,0-1,.59-1.75,2-2.58a2.63,2.63,0,0,1-1-1.92c0-1.13.89-1.88,2.27-1.88a1.8,1.8,0,0,1,2.09,1.75c0,0.85-.5,1.46-1.79,2.2l2.07,2.06a5.28,5.28,0,0,0,.52-1.52l0.92,0.3a5.54,5.54,0,0,1-.73,1.92l1.13,1.13Zm-1.8-1.79-2.39-2.37c-1.18.66-1.55,1.15-1.55,1.82s0.76,1.34,1.88,1.34A2.85,2.85,0,0,0,227,423.75Zm-3-5a2,2,0,0,0,.85,1.44c1.1-.62,1.46-1,1.46-1.54a1,1,0,0,0-1.12-.92A1,1,0,0,0,224,418.79Z" transform="translate(-37.99 -37.99)" />
    <path d="M230.19,421.2a4.25,4.25,0,0,1,4.45-4.29,4.15,4.15,0,0,1,3.19,1.31l-0.78.75a3.11,3.11,0,0,0-2.36-1,3.23,3.23,0,1,0,0,6.45,3.12,3.12,0,0,0,2.36-1l0.78,0.75a4.16,4.16,0,0,1-3.2,1.32A4.24,4.24,0,0,1,230.19,421.2Z" transform="translate(-37.99 -37.99)" />
    <path d="M238.53,422.22a3.3,3.3,0,1,1,3.31,3.25A3.16,3.16,0,0,1,238.53,422.22Zm5.44,0a2.14,2.14,0,1,0-2.13,2.24A2.09,2.09,0,0,0,244,422.22Z" transform="translate(-37.99 -37.99)" />
    <path d="M252.77,421.74v3.66h-1.15v-3.53a1.6,1.6,0,0,0-1.71-1.86,1.89,1.89,0,0,0-2,2.11v3.27h-1.15V419h1.1v1a2.72,2.72,0,0,1,2.29-1A2.46,2.46,0,0,1,252.77,421.74Z" transform="translate(-37.99 -37.99)" />
    <path d="M258.49,425a2.17,2.17,0,0,1-1.39.44,1.81,1.81,0,0,1-2-2V420H254V419h1.08v-1.39h1.15V419h1.82V420h-1.82v3.44a0.94,0.94,0,0,0,1,1.07,1.45,1.45,0,0,0,.9-0.3Z" transform="translate(-37.99 -37.99)" />
    <path d="M265.38,422.61h-5.16a2.15,2.15,0,0,0,2.3,1.86,2.37,2.37,0,0,0,1.83-.77l0.64,0.74a3.46,3.46,0,0,1-5.92-2.22,3.11,3.11,0,0,1,3.19-3.24,3.06,3.06,0,0,1,3.14,3.27C265.41,422.35,265.4,422.5,265.38,422.61Zm-5.16-.83h4.08A2.05,2.05,0,0,0,260.23,421.78Z" transform="translate(-37.99 -37.99)" />
    <path d="M273,421.74v3.66h-1.15v-3.53a1.6,1.6,0,0,0-1.71-1.86,1.89,1.89,0,0,0-2,2.11v3.27H267V419h1.1v1a2.73,2.73,0,0,1,2.29-1A2.46,2.46,0,0,1,273,421.74Z" transform="translate(-37.99 -37.99)" />
    <path d="M278.75,425a2.17,2.17,0,0,1-1.39.44,1.81,1.81,0,0,1-2-2V420h-1.08V419h1.08v-1.39h1.15V419h1.82V420H276.5v3.44a0.94,0.94,0,0,0,1,1.07,1.45,1.45,0,0,0,.9-0.3Z" transform="translate(-37.99 -37.99)" />
    <path class="cls-1" d="M236.73,388.21h28.43a0.63,0.63,0,0,0,.63-0.63V371.15h-1.26v15.79h-27.8a1.9,1.9,0,1,1,0-3.79H238a0.63,0.63,0,0,0,.63-0.63v-19h10.11V362.3H238.63v-4.42a0.63,0.63,0,0,0-.63-0.63h-1.26a3.16,3.16,0,0,0-3.16,3.16V385A3.16,3.16,0,0,0,236.73,388.21Zm-1.9-25.27v-2.53a1.9,1.9,0,0,1,1.9-1.9h0.63v23.38h-0.63a3.15,3.15,0,0,0-1.9.63V362.94Z" transform="translate(-37.99 -37.99)" />
    <path class="cls-1" d="M248.1,365.46h-7.58a0.63,0.63,0,0,0-.63.63v5.05a0.63,0.63,0,0,0,.63.63h7.58a0.63,0.63,0,0,0,.63-0.63v-1.9h2.53V368h-2.53v-1.9A0.63,0.63,0,0,0,248.1,365.46Zm-0.63,5.05h-6.32v-3.79h6.32v3.79Z" transform="translate(-37.99 -37.99)" />
    <path class="cls-1" d="M254.42,383.15H262a0.63,0.63,0,0,0,.63-0.63v-5.05a0.63,0.63,0,0,0-.63-0.63h-3.16V373h-1.26v3.79h-3.16a0.63,0.63,0,0,0-.63.63v1.9h-5.05v-1.9a0.63,0.63,0,0,0-.63-0.63h-7.58a0.63,0.63,0,0,0-.63.63v5.05a0.63,0.63,0,0,0,.63.63h7.58a0.63,0.63,0,0,0,.63-0.63v-1.9h5.05v1.9A0.63,0.63,0,0,0,254.42,383.15Zm0.63-5.05h6.32v3.79h-6.32V378.1Zm-7.58,3.79h-6.32V378.1h6.32v3.79Z" transform="translate(-37.99 -37.99)" />
    <path class="cls-1" d="M260.74,355.36a5.69,5.69,0,1,0,5.69,5.69A5.69,5.69,0,0,0,260.74,355.36Zm0,10.11a4.42,4.42,0,1,1,4.42-4.42A4.42,4.42,0,0,1,260.74,365.46Z" transform="translate(-37.99 -37.99)" />
    <path class="cls-1" d="M270.85,363.57a0.63,0.63,0,0,0,.63-0.63v-3.79a0.63,0.63,0,0,0-.63-0.63h-2.3a8.37,8.37,0,0,0-.5-1.21l1.63-1.62a0.63,0.63,0,0,0,0-.89L267,352.1a0.63,0.63,0,0,0-.89,0l-1.63,1.63a8.4,8.4,0,0,0-1.21-.5v-2.3a0.63,0.63,0,0,0-.63-0.63h-3.79a0.63,0.63,0,0,0-.63.63v2.3a8.4,8.4,0,0,0-1.21.5l-1.62-1.63a0.63,0.63,0,0,0-.89,0l-2.69,2.68a0.63,0.63,0,0,0,0,.89l1.63,1.62a8.35,8.35,0,0,0-.5,1.21h-2.3a0.63,0.63,0,0,0-.63.63v3.79a0.63,0.63,0,0,0,.63.63h2.3a8.37,8.37,0,0,0,.5,1.21l-1.63,1.62a0.63,0.63,0,0,0,0,.9l2.68,2.68a0.63,0.63,0,0,0,.89,0l1.62-1.62a8.45,8.45,0,0,0,1.21.5v2.3a0.63,0.63,0,0,0,.63.63h3.79a0.63,0.63,0,0,0,.63-0.63v-2.3a8.41,8.41,0,0,0,1.21-.5L266.1,370a0.63,0.63,0,0,0,.89,0l2.69-2.68a0.63,0.63,0,0,0,0-.9L268,364.77a8.36,8.36,0,0,0,.5-1.21h2.3Zm-3.38-.79a7.23,7.23,0,0,1-.74,1.79,0.63,0.63,0,0,0,.1.77l1.52,1.51-1.79,1.79L265,367.12a0.63,0.63,0,0,0-.77-0.1,7.2,7.2,0,0,1-1.79.74,0.63,0.63,0,0,0-.47.61v2.14h-2.53v-2.14a0.63,0.63,0,0,0-.47-0.61,7.2,7.2,0,0,1-1.79-.74,0.63,0.63,0,0,0-.77.1l-1.51,1.51-1.79-1.79,1.52-1.51a0.63,0.63,0,0,0,.1-0.77,7.23,7.23,0,0,1-.74-1.79,0.63,0.63,0,0,0-.61-0.47h-2.14v-2.53h2.14a0.63,0.63,0,0,0,.61-0.47,7.23,7.23,0,0,1,.74-1.79,0.63,0.63,0,0,0-.1-0.77l-1.52-1.51,1.79-1.79,1.51,1.52a0.63,0.63,0,0,0,.77.1,7.2,7.2,0,0,1,1.79-.74,0.63,0.63,0,0,0,.47-0.61v-2.14H262v2.14a0.63,0.63,0,0,0,.47.61,7.2,7.2,0,0,1,1.79.74A0.63,0.63,0,0,0,265,355l1.51-1.52,1.79,1.79-1.52,1.51a0.63,0.63,0,0,0-.1.77,7.24,7.24,0,0,1,.74,1.79,0.63,0.63,0,0,0,.61.47h2.14v2.53h-2.14A0.63,0.63,0,0,0,267.46,362.78Z" transform="translate(-37.99 -37.99)" />
    <path class="cls-1" d="M260.74,358.51a2.53,2.53,0,1,0,2.53,2.53A2.53,2.53,0,0,0,260.74,358.51Zm0,3.79A1.26,1.26,0,1,1,262,361,1.26,1.26,0,0,1,260.74,362.3Z" transform="translate(-37.99 -37.99)" />
    <path d="M79.38,269.9H74.92L74,272H72.76l3.8-8.4h1.19l3.81,8.4H80.3Zm-0.42-1-1.81-4.11-1.81,4.11H79Z" transform="translate(-37.99 -37.99)" />
    <path d="M88.45,265.64V272H87.36v-1a2.59,2.59,0,0,1-2.16,1,2.5,2.5,0,0,1-2.73-2.77v-3.66h1.15v3.53A1.61,1.61,0,0,0,85.33,271a1.87,1.87,0,0,0,2-2.11v-3.29h1.15Z" transform="translate(-37.99 -37.99)" />
    <path d="M94.22,271.63a2.17,2.17,0,0,1-1.39.44,1.81,1.81,0,0,1-2-2v-3.49H89.74v-0.95h1.08v-1.39H92v1.39h1.82v0.95H92V270a0.94,0.94,0,0,0,1,1.07,1.45,1.45,0,0,0,.9-0.3Z" transform="translate(-37.99 -37.99)" />
    <path d="M94.81,268.82a3.3,3.3,0,1,1,3.31,3.25A3.16,3.16,0,0,1,94.81,268.82Zm5.44,0a2.14,2.14,0,1,0-2.13,2.24A2.09,2.09,0,0,0,100.26,268.82Z" transform="translate(-37.99 -37.99)" />
    <path d="M113.57,268.34V272h-1.15v-3.53a1.57,1.57,0,0,0-1.64-1.86,1.85,1.85,0,0,0-1.91,2.11V272h-1.15v-3.53a1.57,1.57,0,0,0-1.64-1.86,1.85,1.85,0,0,0-1.91,2.11V272H103v-6.36h1.1v0.95a2.58,2.58,0,0,1,2.19-1,2.35,2.35,0,0,1,2.21,1.17,2.86,2.86,0,0,1,2.45-1.17A2.44,2.44,0,0,1,113.57,268.34Z" transform="translate(-37.99 -37.99)" />
    <path d="M120.74,268.16V272h-1.09v-0.84a2.36,2.36,0,0,1-2.09.91c-1.44,0-2.35-.77-2.35-1.87s0.66-1.86,2.55-1.86h1.82v-0.23a1.46,1.46,0,0,0-1.7-1.54,3.21,3.21,0,0,0-2,.68l-0.48-.86a4.23,4.23,0,0,1,2.63-.82C119.76,265.58,120.74,266.42,120.74,268.16Zm-1.15,1.89v-0.89h-1.77c-1.14,0-1.46.44-1.46,1a1.16,1.16,0,0,0,1.4,1A1.84,1.84,0,0,0,119.59,270.06Z" transform="translate(-37.99 -37.99)" />
    <path d="M126.45,271.63a2.17,2.17,0,0,1-1.39.44,1.81,1.81,0,0,1-2-2v-3.49H122v-0.95H123v-1.39h1.15v1.39H126v0.95H124.2V270a0.94,0.94,0,0,0,1,1.07,1.45,1.45,0,0,0,.9-0.3Z" transform="translate(-37.99 -37.99)" />
    <path d="M127.64,263.68a0.76,0.76,0,0,1,.78-0.76A0.75,0.75,0,1,1,127.64,263.68Zm0.2,2H129V272h-1.15v-6.36Z" transform="translate(-37.99 -37.99)" />
    <path d="M130.61,268.82a3.3,3.3,0,1,1,3.31,3.25A3.16,3.16,0,0,1,130.61,268.82Zm5.44,0a2.14,2.14,0,1,0-2.13,2.24A2.09,2.09,0,0,0,136.05,268.82Z" transform="translate(-37.99 -37.99)" />
    <path d="M144.85,268.34V272H143.7v-3.53a1.6,1.6,0,0,0-1.71-1.86,1.89,1.89,0,0,0-2,2.11V272h-1.15v-6.36h1.1v1a2.72,2.72,0,0,1,2.29-1A2.46,2.46,0,0,1,144.85,268.34Z" transform="translate(-37.99 -37.99)" />
</svg>